<?xml version="1.0" encoding="UTF-8" standalone="no"?>
<!-- Created with Inkscape (http://www.inkscape.org/) -->

<svg
   width="210mm"
   height="297mm"
   viewBox="0 0 210 297"
   version="1.1"
   id="svg5"
   inkscape:version="1.1.1 (3bf5ae0d25, 2021-09-20)"
   sodipodi:docname="ondas.svg"
   xmlns:inkscape="http://www.inkscape.org/namespaces/inkscape"
   xmlns:sodipodi="http://sodipodi.sourceforge.net/DTD/sodipodi-0.dtd"
   xmlns="http://www.w3.org/2000/svg"
   xmlns:svg="http://www.w3.org/2000/svg">
  <sodipodi:namedview
     id="namedview7"
     pagecolor="#ffffff"
     bordercolor="#666666"
     borderopacity="1.0"
     inkscape:pageshadow="2"
     inkscape:pageopacity="0.0"
     inkscape:pagecheckerboard="0"
     inkscape:document-units="mm"
     showgrid="false"
     inkscape:zoom="2.6044095"
     inkscape:cx="545.42114"
     inkscape:cy="456.53343"
     inkscape:window-width="1920"
     inkscape:window-height="986"
     inkscape:window-x="-11"
     inkscape:window-y="-11"
     inkscape:window-maximized="1"
     inkscape:current-layer="layer1" />
  <defs
     id="defs2">
    <clipPath
       clipPathUnits="userSpaceOnUse"
       id="clipPath1255">
      <rect
         style="fill:#ffffff;stroke-width:0.264583"
         id="rect1257"
         width="26.616716"
         height="11.47973"
         x="77.513573"
         y="96.612595" />
    </clipPath>
  </defs>
  <g
     inkscape:label="Camada 1"
     inkscape:groupmode="layer"
     id="layer1">
    <path
       style="fill:#000000;stroke-width:0.264583"
       d="m 123.55649,129.05965 c -0.3638,0.001 -1.05872,-0.19336 -1.54427,-0.43261 -0.76838,-0.37861 -1.05503,-0.39086 -2.21148,-0.0945 -1.22565,0.31413 -1.42761,0.29419 -2.60467,-0.25711 l -1.27599,-0.59765 -1.10704,0.54772 c -0.82393,0.40765 -1.26887,0.48619 -1.73984,0.30713 -0.34804,-0.13233 -0.98815,-0.42435 -1.42247,-0.64895 -0.48927,-0.25301 -1.06732,-0.3429 -1.51956,-0.23629 -0.54204,0.12779 -0.6572,0.094 -0.44746,-0.13129 0.15534,-0.16685 0.6676,-0.41382 1.13835,-0.54884 0.65478,-0.18778 0.88873,-0.15995 0.99555,0.11843 0.0768,0.20014 0.49903,0.48917 0.93829,0.6423 0.55098,0.19207 0.95694,0.19369 1.30911,0.005 0.28076,-0.15026 0.42921,-0.40468 0.32989,-0.56538 -0.1066,-0.17249 -0.0599,-0.21757 0.11412,-0.11005 0.16208,0.10017 0.52106,0.0408 0.79772,-0.13201 0.40871,-0.25524 0.77818,-0.20009 1.97064,0.29415 1.39276,0.57727 1.52041,0.58717 2.50296,0.19403 0.9654,-0.38628 1.11201,-0.37994 2.17006,0.0938 0.6241,0.27941 1.39556,0.50802 1.71436,0.50802 0.31881,0 0.70797,-0.12831 0.8648,-0.28515 0.15683,-0.15683 0.71559,-0.38223 1.24168,-0.50088 0.52609,-0.11865 0.90107,-0.12602 0.83331,-0.0164 -0.0678,0.10965 0.34487,0.41045 0.91698,0.66843 0.68298,0.30798 1.33925,0.41313 1.91102,0.30619 0.81173,-0.15183 0.83597,-0.13626 0.35723,0.22932 -0.28248,0.21572 -0.81826,0.38799 -1.19063,0.38283 -0.37237,-0.005 -0.97469,-0.17954 -1.33849,-0.38751 -0.3638,-0.20797 -0.93638,-0.38235 -1.27239,-0.3875 -0.39586,-0.006 -0.54446,0.0982 -0.42214,0.29609 0.10711,0.17331 0.0735,0.23421 -0.0777,0.14076 -0.14657,-0.0906 -0.49239,0.006 -0.76849,0.21529 -0.2761,0.20899 -0.79965,0.38106 -1.16346,0.38238 z m -35.535924,-1.05449 c -0.173313,-0.006 -0.655666,-0.1951 -1.071897,-0.42061 -0.54606,-0.29586 -0.837064,-0.32974 -1.045104,-0.1217 -0.158577,0.15858 -0.591931,0.2865 -0.963009,0.28427 -0.371078,-0.002 -0.853281,-0.12187 -1.071562,-0.26587 -0.302516,-0.19957 -0.208157,-0.25001 0.396875,-0.21216 0.436562,0.0273 1.054836,-0.0917 1.373942,-0.26451 0.447859,-0.24252 0.737491,-0.24251 1.269842,5e-5 0.534097,0.24335 0.88928,0.24204 1.574723,-0.006 0.678642,-0.2454 1.043076,-0.24806 1.562507,-0.0114 0.521371,0.23755 0.858592,0.23362 1.463805,-0.0171 0.626057,-0.25932 0.975545,-0.25732 1.714295,0.01 0.758962,0.27444 1.004922,0.27164 1.350797,-0.0154 0.349873,-0.29036 0.604117,-0.29113 1.47278,-0.004 0.812598,0.26818 1.202278,0.27708 1.724028,0.0393 0.541712,-0.24682 0.833481,-0.22474 1.485456,0.11241 0.583309,0.30164 0.892026,0.33887 1.098436,0.13246 0.1579,-0.15791 0.53117,-0.2851 0.82949,-0.28264 0.44607,0.004 0.38865,0.10291 -0.32334,0.55884 -0.75487,0.4834 -0.966635,0.5126 -1.653643,0.22803 -0.619473,-0.2566 -0.95347,-0.25779 -1.56236,-0.006 -0.611872,0.25344 -0.969246,0.25034 -1.702373,-0.0148 -0.758961,-0.27444 -1.004922,-0.27163 -1.350797,0.0154 -0.350699,0.29105 -0.603397,0.29138 -1.480572,0.002 -0.807572,-0.2665 -1.130903,-0.27584 -1.367254,-0.0395 -0.170254,0.17025 -0.576371,0.30955 -0.902481,0.30955 -0.32611,0 -0.666511,-0.11906 -0.756448,-0.26458 -0.08994,-0.14552 -0.447124,-0.26458 -0.79375,-0.26458 -0.346626,0 -0.703813,0.11906 -0.79375,0.26458 -0.08994,0.14552 -0.305323,0.25982 -0.478636,0.25399 z m 25.481764,-1.19576 c -0.36381,0.0868 -0.95912,-0.002 -1.32292,-0.19704 -0.3638,-0.19516 -0.92935,-0.52366 -1.25677,-0.72999 -0.46845,-0.29521 -0.702,-0.30853 -1.09596,-0.0625 -0.27535,0.17196 -0.57197,0.24132 -0.65916,0.15413 -0.0872,-0.0872 -0.0259,-0.3183 0.13617,-0.51359 0.16207,-0.19529 0.63325,-0.35507 1.04706,-0.35507 0.4138,0 1.18298,0.20534 1.70927,0.45631 0.92976,0.44337 0.98591,0.43962 1.97963,-0.13229 0.5625,-0.32373 1.21606,-0.58861 1.45236,-0.58861 0.23629,0 0.95831,0.30983 1.60449,0.68852 0.64617,0.37868 1.35198,0.62054 1.56847,0.53747 0.21648,-0.0831 0.39361,-0.0437 0.39361,0.0874 0,0.13114 -0.2224,0.30903 -0.49422,0.3953 -0.27182,0.0863 -0.8176,0.0339 -1.21283,-0.11635 -0.39523,-0.15027 -0.84608,-0.19444 -1.00187,-0.0981 -0.16758,0.10357 -0.20616,0.0503 -0.0945,-0.1304 0.12509,-0.20241 -0.0549,-0.30546 -0.5336,-0.30546 -0.39731,0 -0.91036,0.16931 -1.1401,0.37626 -0.22974,0.20694 -0.71536,0.44727 -1.07916,0.53405 z m 10.00116,0.14552 c -0.18913,-0.001 -0.85716,-0.31012 -1.4845,-0.68609 -0.77903,-0.46688 -1.34521,-0.63224 -1.78594,-0.52162 -0.36179,0.0908 -0.64531,0.0457 -0.64531,-0.10263 0,-0.14552 0.31866,-0.34455 0.70812,-0.4423 0.3927,-0.0986 1.07036,-0.0299 1.52136,0.15406 0.44728,0.18248 1.07004,0.39101 1.38391,0.4634 0.34488,0.0795 0.88746,-0.10259 1.3713,-0.46031 0.61331,-0.45344 1.00189,-0.55167 1.66092,-0.41987 0.47316,0.0946 1.06923,0.36115 1.3246,0.59225 0.25537,0.23111 0.88826,0.42019 1.40643,0.42019 0.51816,0 0.94211,0.10177 0.94211,0.22614 0,0.12437 -0.40225,0.3016 -0.8939,0.39383 -0.57031,0.107 -1.16892,0.0266 -1.65364,-0.22209 -0.41786,-0.21438 -0.99787,-0.37071 -1.28891,-0.3474 -0.29105,0.0233 -0.91021,0.24771 -1.37593,0.49866 -0.46572,0.25096 -1.0015,0.45515 -1.19062,0.45378 z m -41.603295,-0.27317 c -0.154088,-0.006 -0.696878,-0.23924 -1.206201,-0.51808 -0.554844,-0.30376 -0.745433,-0.51143 -0.475471,-0.51807 0.247815,-0.006 0.75706,0.12855 1.131657,0.29923 0.520981,0.23737 0.754032,0.23737 0.991407,0 0.170678,-0.17068 0.591994,-0.31033 0.936259,-0.31033 0.344265,0 0.84556,0.11754 1.113989,0.2612 0.343243,0.1837 0.699327,0.15159 1.200106,-0.10822 0.592704,-0.3075 0.849387,-0.31167 1.53141,-0.0249 0.690391,0.29028 0.913151,0.28305 1.41525,-0.0459 0.499019,-0.32697 0.746439,-0.336 1.521946,-0.0556 0.713775,0.2581 1.080677,0.26441 1.600584,0.0275 0.512241,-0.2334 0.836818,-0.2334 1.349059,0 0.517548,0.23581 0.884266,0.23149 1.575742,-0.0185 0.758924,-0.27443 1.033193,-0.25763 1.737122,0.10638 0.600976,0.31078 0.916598,0.35158 1.123007,0.14517 0.157905,-0.15791 0.56877,-0.2871 0.913035,-0.2871 0.344265,0 0.840311,0.11473 1.102325,0.25495 0.314847,0.16851 0.744569,0.15374 1.267249,-0.0436 0.63293,-0.2389 0.99665,-0.21328 1.82133,0.12829 0.87293,0.36156 0.92934,0.42827 0.36899,0.43638 -0.3638,0.005 -0.83301,-0.099 -1.04269,-0.23163 -0.24769,-0.15672 -0.65108,-0.10166 -1.15164,0.15719 -0.63243,0.32704 -0.910107,0.34054 -1.550286,0.0754 -0.625523,-0.2591 -0.910001,-0.25338 -1.437452,0.0289 -0.540637,0.28934 -0.825288,0.29129 -1.600503,0.011 -0.686094,-0.2481 -1.022231,-0.26165 -1.234128,-0.0498 -0.160168,0.16015 -0.566673,0.2912 -0.903346,0.2912 -0.336672,0 -0.841293,-0.14312 -1.12138,-0.31803 -0.403175,-0.25179 -0.652389,-0.24143 -1.196449,0.0497 -0.560535,0.29999 -0.853373,0.30769 -1.588735,0.0418 -0.718542,-0.25983 -1.009847,-0.25835 -1.435153,0.007 -0.430892,0.2691 -0.719862,0.26591 -1.50106,-0.0166 -0.790439,-0.28582 -1.083609,-0.28766 -1.602384,-0.01 -0.529907,0.28359 -0.778478,0.27136 -1.502595,-0.0739 -0.744623,-0.35508 -0.938773,-0.36174 -1.369242,-0.047 -0.275876,0.20173 -0.627665,0.36179 -0.781752,0.35568 z m 9.377132,-1.32405 c -0.07276,-0.005 -0.460078,-0.18679 -0.860707,-0.40412 -0.535228,-0.29036 -0.86393,-0.32264 -1.239377,-0.1217 -0.281028,0.1504 -0.749887,0.27346 -1.041907,0.27346 -0.29202,0 -0.616122,-0.13782 -0.720226,-0.30626 -0.131172,-0.21224 -0.0038,-0.25776 0.414934,-0.14826 0.350715,0.0917 0.868256,-0.015 1.233559,-0.25436 0.525624,-0.3444 0.759906,-0.35828 1.421535,-0.0842 0.634432,0.26279 0.955201,0.26062 1.610763,-0.0109 0.694469,-0.28766 0.926939,-0.27506 1.533321,0.0831 0.474097,0.28006 0.844341,0.34023 1.099655,0.17873 0.211699,-0.13392 0.616024,-0.24531 0.898499,-0.24754 0.508398,-0.004 0.508398,-1.3e-4 0,0.38441 -0.282475,0.21365 -0.876731,0.39224 -1.32057,0.39687 -0.443838,0.005 -0.929527,-0.11413 -1.079307,-0.26391 -0.186715,-0.18672 -0.515269,-0.14564 -1.045104,0.13066 -0.425027,0.22165 -0.832308,0.39896 -0.905068,0.39403 z m 26.870783,-0.5214 c -0.44513,-0.002 -1.19893,-0.25395 -1.67512,-0.55889 -0.5305,-0.33971 -1.12373,-0.50512 -1.53184,-0.4271 -0.41912,0.0801 -0.63007,0.0176 -0.56901,-0.16872 0.0534,-0.16282 0.42538,-0.33469 0.8267,-0.38193 0.40131,-0.0472 1.16604,0.0887 1.69938,0.30212 0.53335,0.2134 1.02926,0.42899 1.10202,0.47907 0.0728,0.0501 0.56307,-0.17516 1.08957,-0.50055 0.5265,-0.3254 1.15553,-0.59163 1.39786,-0.59163 0.24232,0 1.01482,0.29099 1.71666,0.64664 0.76993,0.39015 1.52729,0.59225 1.90943,0.50953 0.61388,-0.13289 0.61756,-0.1243 0.11977,0.2794 -0.28248,0.22908 -0.67325,0.41651 -0.8684,0.41651 -0.19514,0 -0.78223,-0.17859 -1.30465,-0.39687 -0.52243,-0.21828 -1.20321,-0.39309 -1.51286,-0.38846 -0.30965,0.005 -0.79412,0.18322 -1.07659,0.39687 -0.28248,0.21366 -0.87779,0.38646 -1.32292,0.38401 z m -4.8093,-18.00413 c -0.27387,-0.009 -0.88489,-0.20951 -1.35784,-0.44488 -0.47294,-0.23538 -0.85989,-0.53816 -0.85989,-0.67285 0,-0.13469 0.20836,-0.15447 0.46302,-0.044 0.25466,0.11051 0.85729,0.25619 1.33917,0.32374 0.65565,0.0919 1.03445,-0.0259 1.5051,-0.46804 0.481,-0.45188 0.83502,-0.55765 1.50509,-0.4497 0.48189,0.0776 1.38343,0.29504 2.00342,0.48312 0.99527,0.30193 1.22081,0.28671 1.92618,-0.12997 0.51398,-0.30361 1.19515,-0.44332 1.90986,-0.39172 0.61776,0.0446 1.31896,0.28824 1.57954,0.54882 0.25774,0.25774 0.76627,0.46862 1.13008,0.46862 0.3638,0 0.87973,-0.20836 1.14652,-0.46302 0.26679,-0.25467 0.63631,-0.4969 0.82115,-0.5383 0.18485,-0.0414 0.56188,-0.004 0.83785,0.084 0.27597,0.0876 0.50177,0.27832 0.50177,0.42384 0,0.14552 -0.24034,0.1883 -0.53408,0.0951 -0.36323,-0.11528 -0.79291,0.0483 -1.34322,0.51134 -0.46065,0.38762 -1.13838,0.68085 -1.57361,0.68085 -0.42046,0 -1.18997,-0.20291 -1.71003,-0.45091 -0.81931,-0.3907 -1.05896,-0.40393 -1.79491,-0.0991 -0.46715,0.19348 -1.24883,0.41088 -1.73708,0.4831 -0.59334,0.0878 -1.30997,-0.0665 -2.16105,-0.46509 l -1.27332,-0.59639 -0.91289,0.5642 c -0.5021,0.31031 -1.13697,0.55658 -1.41083,0.54728 z m -22.087668,-0.60204 c -0.867288,0.0885 -1.385508,-0.02 -2.030731,-0.42488 -0.47646,-0.29901 -1.131303,-0.53988 -1.455208,-0.53525 -0.323905,0.005 -0.820033,0.18322 -1.102508,0.39688 -0.282475,0.21365 -0.894363,0.38846 -1.359751,0.38846 -0.481258,0 -1.115527,-0.23776 -1.470785,-0.55132 -0.541258,-0.47773 -0.553998,-0.5257 -0.09546,-0.35945 0.291042,0.10552 0.853624,0.24763 1.250183,0.31579 0.51417,0.0884 0.956442,-0.0742 1.541654,-0.56659 0.451351,-0.37978 1.046443,-0.69052 1.322427,-0.69052 0.275984,0 1.040755,0.26185 1.699491,0.58189 l 1.197703,0.58189 1.197703,-0.58189 c 0.658737,-0.32004 1.366812,-0.58189 1.5735,-0.58189 0.206688,0 0.935611,0.29766 1.619829,0.66146 0.684217,0.3638 1.388836,0.66146 1.565819,0.66146 0.176983,0 0.624513,-0.23813 0.994513,-0.52917 0.369999,-0.29104 0.974342,-0.52916 1.342983,-0.52916 0.368641,0 0.743841,0.11906 0.833778,0.26458 0.09339,0.1511 -0.138861,0.26458 -0.541503,0.26458 -0.387764,0 -1.05877,0.29766 -1.491124,0.66146 -0.432354,0.3638 -1.046617,0.66146 -1.365029,0.66146 -0.318412,0 -1.02322,-0.23813 -1.566241,-0.52917 -0.54302,-0.29104 -1.21995,-0.52916 -1.504288,-0.52916 -0.284338,0 -0.623975,0.19119 -0.754749,0.42487 -0.142082,0.25388 -0.706385,0.47268 -1.402209,0.54367 z m 21.405018,-1.76328 c -0.33497,-5.6e-4 -1.01638,-0.24932 -1.51424,-0.55283 -0.59276,-0.36137 -1.21074,-0.51616 -1.79045,-0.44849 -0.54139,0.0632 -0.84989,-0.005 -0.79422,-0.17477 0.0501,-0.15297 0.46124,-0.31488 0.91371,-0.35978 0.45247,-0.0449 1.18153,0.10391 1.62013,0.33072 0.4386,0.22681 1.08651,0.41239 1.43978,0.41239 0.35895,0 0.83707,-0.26265 1.08373,-0.59532 0.24277,-0.32742 0.3617,-0.43413 0.26428,-0.23714 -0.12452,0.2518 0.0241,0.22632 0.50047,-0.0858 0.64139,-0.42026 0.74386,-0.41466 1.91829,0.10485 0.68239,0.30185 1.55299,0.54504 1.93467,0.54041 0.38169,-0.005 0.92509,-0.18322 1.20757,-0.39688 0.28247,-0.21365 0.87778,-0.38879 1.32291,-0.38919 0.44513,-4e-4 1.31797,0.26748 1.93964,0.59531 l 1.13031,0.59605 1.03878,-0.59531 c 0.57132,-0.32743 1.2533,-0.59487 1.51552,-0.59433 0.26221,5.6e-4 0.88908,0.25236 1.39304,0.55958 0.52844,0.32214 1.3427,0.5527 1.92364,0.54469 0.56273,-0.008 0.93967,0.0956 0.85403,0.23417 -0.0843,0.13644 -0.65231,0.24385 -1.26218,0.2387 -0.60988,-0.005 -1.40652,-0.17953 -1.77033,-0.3875 -0.3638,-0.20797 -0.91089,-0.38234 -1.21576,-0.3875 -0.30487,-0.005 -0.7698,0.22875 -1.03319,0.51979 -0.3105,0.34309 -0.81336,0.52859 -1.43008,0.52754 -0.52314,-9e-4 -1.29221,-0.17949 -1.70902,-0.39688 -0.41682,-0.21738 -1.01213,-0.39146 -1.32292,-0.38683 -0.31079,0.005 -0.79618,0.18322 -1.07866,0.39688 -0.28247,0.21365 -0.9828,0.38846 -1.55627,0.38846 -0.60963,0 -1.43034,-0.23959 -1.97608,-0.57687 l -0.93339,-0.57688 -1.00234,0.57688 c -0.55128,0.31727 -1.2764,0.57642 -1.61137,0.57588 z m -27.466979,-0.66832 c -0.453582,0.11314 -1.078622,-0.0547 -1.971196,-0.52927 -0.742503,-0.39479 -1.569821,-0.64471 -1.915501,-0.57862 -0.334669,0.064 -0.60849,0.016 -0.60849,-0.10654 0,-0.12257 0.270851,-0.29083 0.601892,-0.37391 0.343304,-0.0862 1.110586,0.0797 1.785937,0.38602 0.651225,0.2954 1.35624,0.5397 1.566699,0.5429 0.21046,0.003 0.844459,-0.31422 1.408888,-0.70537 l 1.026235,-0.71118 1.236945,0.47806 c 0.68032,0.26293 1.485281,0.53357 1.788803,0.60142 0.303522,0.0678 0.958365,-0.12445 1.455208,-0.42734 0.496843,-0.3029 1.086535,-0.55116 1.310428,-0.55171 0.223892,-5.4e-4 0.874145,0.23714 1.445006,0.52818 0.570862,0.29104 1.355364,0.52917 1.743339,0.52917 0.387975,0 0.853629,-0.1786 1.034786,-0.39688 0.181158,-0.21828 0.676729,-0.39687 1.101271,-0.39687 0.424541,0 1.260319,0.24917 1.857279,0.55372 0.69487,0.35449 1.41476,0.51527 2.0008,0.44686 0.80846,-0.0944 0.85998,-0.0663 0.441,0.24002 -0.26092,0.19079 -0.71954,0.34428 -1.01915,0.34109 -0.29961,-0.003 -1.06376,-0.24133 -1.698114,-0.52917 -0.634355,-0.28785 -1.241216,-0.52336 -1.348579,-0.52336 -0.107363,0 -0.473504,0.24137 -0.813648,0.53637 -0.340143,0.29501 -0.907669,0.60897 -1.261169,0.69769 -0.393773,0.0988 -1.202663,-0.0708 -2.088317,-0.43785 -1.240172,-0.51402 -1.535395,-0.5511 -2.077576,-0.26093 -0.347593,0.18602 -0.588045,0.40958 -0.534339,0.49679 0.05371,0.0872 -0.380464,0.19218 -0.964823,0.23328 -0.702425,0.0494 -1.371328,-0.1075 -1.973885,-0.46302 -0.501277,-0.29576 -1.163124,-0.53774 -1.470769,-0.53774 -0.307646,0 -0.747324,0.16931 -0.977064,0.37626 -0.22974,0.20694 -0.716593,0.45081 -1.081896,0.54193 z m 34.001689,-1.61158 c -0.3034,0.0891 -1.13302,-0.12489 -1.9445,-0.50162 -0.77844,-0.36139 -1.56753,-0.65708 -1.75354,-0.65708 -0.18602,0 -0.48008,0.17094 -0.65347,0.37987 -0.1734,0.20893 -0.65554,0.4546 -1.07142,0.54595 -0.47634,0.10462 -1.06613,0.006 -1.59381,-0.26709 -0.4607,-0.23824 -0.78636,-0.48445 -0.72367,-0.54714 0.0627,-0.0627 0.49483,0.0188 0.96033,0.18107 0.7481,0.26079 0.96205,0.21485 1.84306,-0.39569 0.54819,-0.37989 1.24307,-0.69072 1.54417,-0.69072 0.3011,0 1.10437,0.24635 1.78504,0.54744 l 1.23758,0.54744 0.92784,-0.54744 c 0.51032,-0.30109 1.24846,-0.54699 1.64032,-0.54645 0.39187,5.6e-4 1.10232,0.23867 1.57878,0.52917 0.47645,0.2905 1.20602,0.52818 1.62124,0.52818 0.41523,0 0.90318,-0.1786 1.08434,-0.39688 0.19511,-0.23509 0.72063,-0.38219 1.28917,-0.36084 0.72293,0.0271 0.79831,0.0662 0.30546,0.15842 -0.35987,0.0673 -0.99409,0.4083 -1.40936,0.75772 -0.41527,0.34943 -1.04738,0.63533 -1.40469,0.63533 -0.35731,0 -1.07709,-0.1786 -1.59951,-0.39688 -0.52243,-0.21828 -1.17763,-0.39687 -1.45602,-0.39687 -0.27839,0 -0.76987,0.16619 -1.09217,0.36932 -0.3223,0.20313 -0.82413,0.43928 -1.11517,0.52479 z m -28.80912,-0.63203 c -0.453318,-10e-4 -1.331626,-0.30662 -1.951795,-0.67831 -0.784111,-0.46994 -1.307339,-0.61874 -1.717716,-0.4885 -0.524384,0.16644 -0.549909,0.13883 -0.229086,-0.24773 0.198578,-0.239276 0.614363,-0.430825 0.923967,-0.425668 0.309603,0.0052 0.860572,0.179531 1.224374,0.387498 0.363802,0.20797 1.000266,0.38234 1.414364,0.3875 0.414098,0.005 1.106136,-0.24215 1.537862,-0.549562 0.558539,-0.397715 1.009847,-0.51396 1.56462,-0.403005 0.428816,0.08576 1.125744,0.4118 1.54873,0.724527 0.529259,0.3913 1.023509,0.53125 1.585077,0.44883 0.448808,-0.0659 0.816013,-0.0341 0.816013,0.0707 0,0.10474 -0.188331,0.26272 -0.418514,0.35105 -0.230184,0.0883 -0.660688,0.1606 -0.956677,0.1606 -0.295989,0 -1.102781,-0.20054 -1.792871,-0.44564 -1.226815,-0.43572 -1.271043,-0.43278 -1.989422,0.13229 -0.404091,0.31786 -1.105608,0.5768 -1.558926,0.57543 z"
       id="path843"
       clip-path="url(#clipPath1255)" />
  </g>
</svg>
